HIERARCHY
ROOT Hips
{
	OFFSET 0 0 0
	CHANNELS 6 Xposition Yposition Zposition Zrotation Xrotation Yrotation 
	JOINT RightUpLeg
	{
		OFFSET -3.17 -2.64 -0.26
		CHANNELS 3 Zrotation Xrotation Yrotation 
		JOINT RightLeg
		{
			OFFSET -0.36 -13.7 -0.45
			CHANNELS 3 Zrotation Xrotation Yrotation 
			End Site
			{
				OFFSET 0.13 -14.01 -0.08
			}
		}
	}
	JOINT LeftUpLeg
	{
		OFFSET 3.17 -2.64 -0.26
		CHANNELS 3 Zrotation Xrotation Yrotation 
		JOINT LeftLeg
		{
			OFFSET 0.36 -13.7 -0.45
			CHANNELS 3 Zrotation Xrotation Yrotation 
			End Site
			{
				OFFSET -0.13 -14.01 -0.08
			}
		}
	}
	JOINT Spine
	{
		OFFSET 0 2.88 0
		CHANNELS 3 Zrotation Xrotation Yrotation 
		JOINT Spine1
		{
			OFFSET 0 3.38 0
			CHANNELS 3 Zrotation Xrotation Yrotation 
			JOINT Spine2
			{
				OFFSET 0 3.61 0
				CHANNELS 3 Zrotation Xrotation Yrotation 
				JOINT Spine3
				{
					OFFSET 0 3.52 0.37
					CHANNELS 3 Zrotation Xrotation Yrotation 
					JOINT Neck
					{
						OFFSET 0 3.62 -0.37
						CHANNELS 3 Zrotation Xrotation Yrotation 
						End Site
						{
							OFFSET 0 3 0
						}
					}
					JOINT RightShoulder
					{
						OFFSET -1.47 1.22 -0.37
						CHANNELS 3 Zrotation Xrotation Yrotation 
						JOINT RightArm
						{
							OFFSET -4.69 0 0
							CHANNELS 3 Zrotation Xrotation Yrotation 
							JOINT RightForeArm
							{
								OFFSET -7.76 0 0
								CHANNELS 3 Zrotation Xrotation Yrotation 
								JOINT RightHand
								{
									OFFSET -8.52 0 0
									CHANNELS 3 Zrotation Xrotation Yrotation 
									JOINT RightHandThumb1
									{
										OFFSET -1.01 0.08 1.27
										CHANNELS 3 Zrotation Xrotation Yrotation 
										JOINT RightHandThumb2
										{
											OFFSET -1.5 0 -0.01
											CHANNELS 3 Zrotation Xrotation Yrotation 
											End Site
											{
												OFFSET -1.04 0 -0.01
											}
										}
									}
									JOINT RightInHandIndex
									{
										OFFSET -1.31 0.21 0.81
										CHANNELS 3 Zrotation Xrotation Yrotation 
										JOINT RightHandIndex1
										{
											OFFSET -2.13 -0.04 0.41
											CHANNELS 3 Zrotation Xrotation Yrotation 
											JOINT RightHandIndex2
											{
												OFFSET -1.47 -0.07 0
												CHANNELS 3 Zrotation Xrotation Yrotation 
												End Site
												{
													OFFSET -0.83 -0.05 0
												}
											}
										}
									}
									JOINT RightInHandMiddle
									{
										OFFSET -1.38 0.21 0.31
										CHANNELS 3 Zrotation Xrotation Yrotation 
										JOINT RightHandMiddle1
										{
											OFFSET -2.11 -0.03 0.13
											CHANNELS 3 Zrotation Xrotation Yrotation 
											JOINT RightHandMiddle2
											{
												OFFSET -1.6 -0.11 0
												CHANNELS 3 Zrotation Xrotation Yrotation 
												End Site
												{
													OFFSET -1 -0.08 0
												}
											}
										}
									}
									JOINT RightInHandRing
									{
										OFFSET -1.37 0.22 -0.05
										CHANNELS 3 Zrotation Xrotation Yrotation 
										JOINT RightHandRing1
										{
											OFFSET -1.89 -0.01 -0.2
											CHANNELS 3 Zrotation Xrotation Yrotation 
											JOINT RightHandRing2
											{
												OFFSET -1.4 -0.13 0
												CHANNELS 3 Zrotation Xrotation Yrotation 
												End Site
												{
													OFFSET -0.97 -0.08 0
												}
											}
										}
									}
									JOINT RightInHandPinky
									{
										OFFSET -1.29 0.19 -0.49
										CHANNELS 3 Zrotation Xrotation Yrotation 
										JOINT RightHandPinky1
										{
											OFFSET -1.69 -0.01 -0.44
											CHANNELS 3 Zrotation Xrotation Yrotation 
											JOINT RightHandPinky2
											{
												OFFSET -1.12 -0.06 -0.01
												CHANNELS 3 Zrotation Xrotation Yrotation 
												End Site
												{
													OFFSET -0.71 -0.05 0
												}
											}
										}
									}
								}
							}
						}
					}
					JOINT LeftShoulder
					{
						OFFSET 1.47 1.22 -0.37
						CHANNELS 3 Zrotation Xrotation Yrotation 
						JOINT LeftArm
						{
							OFFSET 4.69 0 0
							CHANNELS 3 Zrotation Xrotation Yrotation 
							JOINT LeftForeArm
							{
								OFFSET 7.76 0 0
								CHANNELS 3 Zrotation Xrotation Yrotation 
								JOINT LeftHand
								{
									OFFSET 8.52 0 0
									CHANNELS 3 Zrotation Xrotation Yrotation 
									JOINT LeftHandThumb1
									{
										OFFSET 1.01 0.08 1.27
										CHANNELS 3 Zrotation Xrotation Yrotation 
										JOINT LeftHandThumb2
										{
											OFFSET 1.5 0 0
											CHANNELS 3 Zrotation Xrotation Yrotation 
											End Site
											{
												OFFSET 1.04 0 0
											}
										}
									}
									JOINT LeftInHandIndex
									{
										OFFSET 1.31 0.21 0.81
										CHANNELS 3 Zrotation Xrotation Yrotation 
										JOINT LeftHandIndex1
										{
											OFFSET 2.13 -0.04 0.41
											CHANNELS 3 Zrotation Xrotation Yrotation 
											JOINT LeftHandIndex2
											{
												OFFSET 1.47 -0.07 0
												CHANNELS 3 Zrotation Xrotation Yrotation 
												End Site
												{
													OFFSET 0.83 -0.05 0
												}
											}
										}
									}
									JOINT LeftInHandMiddle
									{
										OFFSET 1.38 0.21 0.31
										CHANNELS 3 Zrotation Xrotation Yrotation 
										JOINT LeftHandMiddle1
										{
											OFFSET 2.11 -0.03 0.13
											CHANNELS 3 Zrotation Xrotation Yrotation 
											JOINT LeftHandMiddle2
											{
												OFFSET 1.6 -0.11 0
												CHANNELS 3 Zrotation Xrotation Yrotation 
												End Site
												{
													OFFSET 1 -0.08 0
												}
											}
										}
									}
									JOINT LeftInHandRing
									{
										OFFSET 1.37 0.22 -0.05
										CHANNELS 3 Zrotation Xrotation Yrotation 
										JOINT LeftHandRing1
										{
											OFFSET 1.89 -0.01 -0.2
											CHANNELS 3 Zrotation Xrotation Yrotation 
											JOINT LeftHandRing2
											{
												OFFSET 1.4 -0.11 0
												CHANNELS 3 Zrotation Xrotation Yrotation 
												End Site
												{
													OFFSET 0.97 -0.07 0
												}
											}
										}
									}
									JOINT LeftInHandPinky
									{
										OFFSET 1.29 0.19 -0.49
										CHANNELS 3 Zrotation Xrotation Yrotation 
										JOINT LeftHandPinky1
										{
											OFFSET 1.69 -0.01 -0.44
											CHANNELS 3 Zrotation Xrotation Yrotation 
											JOINT LeftHandPinky2
											{
												OFFSET 1.12 -0.06 0
												CHANNELS 3 Zrotation Xrotation Yrotation 
												End Site
												{
													OFFSET 0.71 -0.05 0
												}
											}
										}
									}
								}
							}
						}
					}
				}
			}
		}
	}
}
MOTION
Frames: 6
Frame Time: 0.0333333
-98.7917 30.7514 2.2703 1.2457 -3.1312 9.8534 353.3804 -3.1753 344.5345 0 -335.5461 0 357.6759 -11.259 344.1962 0 -335.3629 0 356.083 -354.1122 4.5102 359.0662 -358.4455 1.0298 358.4342 -357.3889 1.6694 0.1865 -359.6567 359.0414 0.1871 -359.6531 359.037 1.2206 -26.0468 37.2676 43.4829 -35.017 34.9032 21.2891 -10.7734 25.0683 345.2997 -0.0942 344.8269 45.027 -313.8451 35.7741 13.8721 -350.8176 32.8693 0 0 0 26.7032 -353.1342 13.3686 32.4063 0 0 0 0 0 24.6159 0 0 24.6159 0 0 0 0 0 44.0751 -10.558 349.2839 45.0681 0 0 0 0 0 23.9116 -10.7031 337.2727 26.0687 0 0 349.935 -9.352 6.2823 287.5633 -344.8164 3.2986 14.5884 -358.7216 352.0066 359.9023 -22.6752 355.6321 336.9492 -337.447 317.9705 353.781 -21.2391 73.2583 0 0 0 280.4844 -345.2394 357.3006 31.6907 0 0 0 0 0 327.2942 0 0 327.2942 0 0 0 0 0 286.3606 -14.4184 4.1808 285.8315 0 0 0 0 0 327.8384 -13.9402 20.9632 325.247 0 0 
-98.7963 30.752 2.2804 1.3039 -3.0749 9.6823 353.3152 -3.3398 344.7792 0 -335.4453 0 357.6386 -11.2635 344.3896 0 -335.4447 0 356.0386 -354.149 4.6576 359.0562 -358.4513 1.0663 358.4172 -357.3971 1.7294 0.1834 -359.6656 359.0462 0.1841 -359.6621 359.0418 1.0421 -25.6017 37.0465 43.8649 -35.7963 34.925 21.9553 -10.8288 25.4706 345.2209 -359.6407 345.0143 44.6392 -313.9266 36.1054 13.6136 -350.9121 33.1127 0 0 0 26.7669 -353.1192 13.361 32.5713 0 0 0 0 0 24.731 0 0 24.731 0 0 0 0 0 44.3927 -10.6169 349.3422 45.3858 0 0 0 0 0 24.1499 -10.801 337.3171 26.3225 0 0 349.9138 -9.2918 6.2331 287.6848 -345.264 3.3801 14.2418 -358.3885 352.427 359.871 -22.5538 354.8889 336.9708 -337.7343 318.2871 354.1375 -21.1211 74.0952 0 0 0 281.6229 -345.2941 357.011 31.416 0 0 0 0 0 327.61 0 0 327.61 0 0 0 0 0 286.1154 -14.4357 4.1197 285.5934 0 0 0 0 0 328.2203 -13.7978 21.0547 325.6442 0 0 
-98.7963 30.752 2.2804 1.3039 -3.0749 9.6823 353.3152 -3.3398 344.7792 0 -335.4453 0 357.6386 -11.2635 344.3896 0 -335.4447 0 356.0386 -354.149 4.6576 359.0562 -358.4513 1.0663 358.4172 -357.3971 1.7294 0.1834 -359.6656 359.0462 0.1841 -359.6621 359.0418 1.0421 -25.6017 37.0465 43.8649 -35.7963 34.925 21.9553 -10.8288 25.4706 345.2209 -359.6407 345.0143 44.6392 -313.9266 36.1054 13.6136 -350.9121 33.1127 0 0 0 26.7669 -353.1192 13.361 32.5713 0 0 0 0 0 24.731 0 0 24.731 0 0 0 0 0 44.3927 -10.6169 349.3422 45.3858 0 0 0 0 0 24.1499 -10.801 337.3171 26.3225 0 0 349.9138 -9.2918 6.2331 287.6848 -345.264 3.3801 14.2418 -358.3885 352.427 359.871 -22.5538 354.8889 336.9708 -337.7343 318.2871 354.1375 -21.1211 74.0952 0 0 0 281.6229 -345.2941 357.011 31.416 0 0 0 0 0 327.61 0 0 327.61 0 0 0 0 0 286.1154 -14.4357 4.1197 285.5934 0 0 0 0 0 328.2203 -13.7978 21.0547 325.6442 0 0 
-98.8379 30.7527 2.2898 1.3801 -2.9362 9.4219 353.1521 -3.6293 345.1768 0 -335.2813 0 357.5049 -11.343 344.7018 0 -335.485 0 356.2844 -354.3718 4.7989 359.117 -358.5098 1.1116 358.5176 -357.4938 1.8089 0.157 -359.656 359.0472 0.1576 -359.653 359.0427 359.6259 -24.3454 36.5933 45.6235 -39.7425 35.479 23.2618 -7.7631 25.4974 345.4245 -2.2295 345.2868 45.079 -313.9829 35.6619 13.8762 -350.9183 32.5766 0 0 0 27.0639 -353.0492 13.3252 33.2625 0 0 0 0 0 25.1045 0 0 25.1045 0 0 0 0 0 45.5093 -10.8213 349.5499 46.5018 0 0 0 0 0 24.8929 -11.1049 337.4583 27.1127 0 0 349.4609 -8.9081 6.2235 287.955 -345.538 3.3505 12.8116 -357.2523 355.0349 358.7523 -23.546 352.4737 337.6786 -338.4836 318.2248 354.5987 -20.2148 74.6966 0 0 0 283.1837 -345.3782 356.6158 31.072 0 0 0 0 0 328.1403 0 0 328.1403 0 0 0 0 0 285.152 -14.5009 3.879 284.6583 0 0 0 0 0 328.8163 -13.5741 21.1957 326.265 0 0 
-98.8379 30.7527 2.2898 1.3801 -2.9362 9.4219 353.1521 -3.6293 345.1768 0 -335.2813 0 357.5049 -11.343 344.7018 0 -335.485 0 356.2844 -354.3718 4.7989 359.117 -358.5098 1.1116 358.5176 -357.4938 1.8089 0.157 -359.656 359.0472 0.1576 -359.653 359.0427 359.6259 -24.3454 36.5933 45.6235 -39.7425 35.479 23.2618 -7.7631 25.4974 345.4245 -2.2295 345.2868 45.079 -313.9829 35.6619 13.8762 -350.9183 32.5766 0 0 0 27.0639 -353.0492 13.3252 33.2625 0 0 0 0 0 25.1045 0 0 25.1045 0 0 0 0 0 45.5093 -10.8213 349.5499 46.5018 0 0 0 0 0 24.8929 -11.1049 337.4583 27.1127 0 0 349.4609 -8.9081 6.2235 287.955 -345.538 3.3505 12.8116 -357.2523 355.0349 358.7523 -23.546 352.4737 337.6786 -338.4836 318.2248 354.5987 -20.2148 74.6966 0 0 0 283.1837 -345.3782 356.6158 31.072 0 0 0 0 0 328.1403 0 0 328.1403 0 0 0 0 0 285.152 -14.5009 3.879 284.6583 0 0 0 0 0 328.8163 -13.5741 21.1957 326.265 0 0 
-98.892 30.7556 2.2849 1.4192 -2.8781 9.3415 353.0425 -3.6835 345.4753 0 -335.2891 0 357.3761 -11.3487 344.8923 0 -335.4975 0 356.498 -354.5812 4.6207 359.167 -358.5697 1.0751 358.6013 -357.5951 1.7524 0.1379 -359.6465 359.0725 0.1383 -359.6438 359.0683 358.5939 -22.9676 35.6966 47.5165 -42.5987 35.7718 25.5468 -5.9996 27.1389 344.8176 -4.1483 347.5511 44.1582 -315.2892 35.9238 12.9997 -351.9647 31.1942 0 0 0 28.4934 -352.7155 13.1481 33.8991 0 0 0 0 0 25.9983 0 0 25.9983 0 0 0 0 0 47.1724 -11.1178 349.8664 48.1612 0 0 0 0 0 26.0314 -11.5656 337.6821 28.3203 0 0 349.187 -8.5063 6.1262 288.088 -346.0375 3.4332 12.4028 -356.8607 355.4854 356.0925 -22.952 353.4624 339.1646 -339.0688 316.8106 354.3103 -18.6594 72.7031 0 0 0 286.2744 -345.5755 355.8406 30.9602 0 0 0 0 0 329.0276 0 0 329.0276 0 0 0 0 0 285.6813 -14.4655 4.0114 285.172 0 0 0 0 0 329.7086 -13.2357 21.4026 327.1966 0 0 
